<svg data-v-423bf9ae="" xmlns="http://www.w3.org/2000/svg" viewBox="0 0 404 90" class="iconLeft"><!----><!----><!----><g data-v-423bf9ae="" id="4bb8618e-749f-4f09-9434-a1dd2826b8f8" fill="white" transform="matrix(5.802707672119141,0,0,5.802707672119141,99.55888366699219,-5.483555793762207)"><path d="M2.51 7.08Q2.83 6.93 3.25 6.82Q3.67 6.71 4.02 6.71L4.02 6.71Q5.57 6.71 6.41 7.58Q7.25 8.46 7.25 10.23L7.25 10.23Q7.25 11.80 6.48 12.83Q5.71 13.86 3.82 13.86L3.82 13.86Q3.23 13.86 2.41 13.75Q1.58 13.64 1.11 13.47L1.11 13.47L1.11 4.63L-0.08 4.49L-0.08 4.06L2.07 3.53L2.51 3.53L2.51 7.08ZM2.51 12.91Q2.70 13.01 3.04 13.08Q3.37 13.15 3.77 13.15L3.77 13.15Q4.87 13.15 5.30 12.45Q5.73 11.76 5.73 10.26L5.73 10.26Q5.73 8.82 5.31 8.14Q4.90 7.46 3.81 7.46L3.81 7.46Q3.43 7.46 3.13 7.54Q2.83 7.62 2.51 7.77L2.51 7.77L2.51 12.91ZM11.45 13.87Q9.80 13.87 9.02 12.94Q8.23 12.01 8.23 10.32L8.23 10.32Q8.23 8.51 9.04 7.61Q9.84 6.71 11.30 6.71L11.30 6.71Q12.68 6.71 13.34 7.35Q13.99 7.99 13.99 9.37L13.99 9.37Q13.99 9.73 13.94 10.14L13.94 10.14L9.74 10.14L9.74 10.54Q9.74 11.77 10.27 12.40Q10.79 13.03 11.76 13.03L11.76 13.03Q12.66 13.03 13.80 12.71L13.80 12.71L13.90 13.20Q13.34 13.55 12.77 13.71Q12.19 13.87 11.45 13.87L11.45 13.87ZM9.77 9.56L12.53 9.41L12.53 9.10Q12.53 8.29 12.26 7.89Q12.00 7.49 11.38 7.49L11.38 7.49Q10.54 7.49 10.19 7.97Q9.83 8.46 9.77 9.56L9.77 9.56ZM17.64 7.56Q16.98 7.56 16.37 7.76L16.37 7.76L16.04 8.95L15.50 8.95L15.26 7.22Q16.66 6.71 17.96 6.71L17.96 6.71Q19.03 6.71 19.59 7.06Q20.15 7.42 20.15 8.30L20.15 8.30L20.15 12.80L21.35 13.09L21.35 13.55Q20.57 13.78 19.85 13.78L19.85 13.78Q19.46 13.78 19.17 13.58Q18.87 13.38 18.79 13.02L18.79 13.02Q18.21 13.44 17.65 13.66Q17.09 13.87 16.48 13.87L16.48 13.87Q15.75 13.87 15.34 13.37Q14.92 12.87 14.92 12.15L14.92 12.15Q14.92 11.48 15.31 10.92Q15.69 10.36 16.70 10.18L16.70 10.18L18.76 9.80L18.76 8.68Q18.76 8.11 18.52 7.83Q18.27 7.56 17.64 7.56L17.64 7.56ZM17.49 10.70Q16.34 10.92 16.34 11.94L16.34 11.94Q16.34 12.92 17.28 12.92L17.28 12.92Q17.88 12.92 18.76 12.45L18.76 12.45L18.76 10.47L17.49 10.70ZM25.84 7.70Q25.13 7.70 24.51 7.95L24.51 7.95L24.51 12.91L26.11 13.22L26.11 13.72L21.92 13.72L21.92 13.23L23.13 12.89L23.13 7.83L21.92 7.67L21.92 7.24L23.95 6.71L24.49 6.71L24.49 7.35Q24.96 7.04 25.54 6.86Q26.12 6.68 26.63 6.68L26.63 6.68Q26.89 6.68 27.01 6.69L27.01 6.69L26.77 8.86L26.14 8.86L25.84 7.70ZM32.51 13.06Q31.98 13.45 31.42 13.66Q30.86 13.86 30.18 13.86L30.18 13.86Q29.40 13.86 28.85 13.38Q28.29 12.89 28.02 12.09Q27.75 11.28 27.75 10.32L27.75 10.32Q27.75 8.62 28.57 7.67Q29.40 6.71 30.87 6.71L30.87 6.71Q31.23 6.71 31.59 6.78Q31.95 6.85 32.20 6.93Q32.45 7.01 32.47 7.04L32.47 7.04L32.47 4.63L31.26 4.49L31.26 4.06L33.40 3.53L33.85 3.53L33.85 12.80L35.06 13.09L35.06 13.55Q34.29 13.78 33.54 13.78L33.54 13.78Q33.19 13.78 32.89 13.58Q32.58 13.38 32.51 13.06L32.51 13.06ZM30.84 12.95Q31.29 12.95 31.73 12.78Q32.17 12.61 32.47 12.42L32.47 12.42L32.47 7.87Q31.84 7.46 31.04 7.46L31.04 7.46Q30.17 7.46 29.71 8.21Q29.26 8.96 29.26 10.28L29.26 10.28Q29.26 11.51 29.65 12.23Q30.04 12.95 30.84 12.95L30.84 12.95ZM37.51 12.94Q37.51 13.31 37.23 13.58Q36.95 13.85 36.57 13.85L36.57 13.85Q36.19 13.85 35.90 13.58Q35.62 13.31 35.62 12.94L35.62 12.94Q35.62 12.56 35.90 12.28Q36.19 12.00 36.57 12.00L36.57 12.00Q36.95 12.00 37.23 12.27Q37.51 12.54 37.51 12.94L37.51 12.94ZM41.10 7.49Q40.47 7.49 40.12 7.74Q39.77 7.98 39.77 8.41L39.77 8.41Q39.77 8.82 39.97 9.04Q40.17 9.25 40.67 9.44L40.67 9.44L41.86 9.84Q42.71 10.14 43.04 10.56Q43.37 10.98 43.37 11.72L43.37 11.72Q43.37 12.71 42.68 13.29Q41.99 13.86 40.68 13.86L40.68 13.86Q40.18 13.86 39.59 13.76Q38.99 13.66 38.53 13.50L38.53 13.50L38.72 11.77L39.27 11.77L39.56 12.94Q40.12 13.10 40.71 13.10L40.71 13.10Q42.15 13.10 42.15 11.97L42.15 11.97Q42.15 11.63 41.93 11.42Q41.71 11.20 41.10 10.99L41.10 10.99L40.03 10.63Q39.28 10.35 38.95 9.91Q38.61 9.48 38.61 8.76L38.61 8.76Q38.61 7.78 39.24 7.25Q39.87 6.71 41.13 6.71L41.13 6.71Q42.13 6.71 43.11 7.14L43.11 7.14L42.90 8.72L42.36 8.72L42.07 7.70Q41.89 7.62 41.61 7.55Q41.34 7.49 41.10 7.49L41.10 7.49ZM52.35 13.72L48.69 13.72L48.69 13.22L49.76 12.91L49.76 8.53Q49.76 8.16 49.65 7.97Q49.55 7.78 49.28 7.71Q49.01 7.64 48.50 7.64L48.50 7.64Q47.54 7.64 46.84 7.85L46.84 7.85L46.84 12.91L47.91 13.22L47.91 13.72L44.24 13.72L44.24 13.19L45.44 12.91L45.44 4.63L44.24 4.49L44.24 4.06L46.41 3.53L46.84 3.53L46.84 7.27Q47.35 7.06 48.03 6.88Q48.72 6.71 49.32 6.71L49.32 6.71Q50.12 6.71 50.63 7.07Q51.14 7.43 51.14 8.22L51.14 8.22L51.14 12.91L52.35 13.22L52.35 13.72Z"></path></g><!----><g data-v-423bf9ae="" id="d76f6129-8eb6-4d12-a749-7b67a5ce8ec5" transform="matrix(1.2687650918960571,0,0,1.2687650918960571,-23.62163543701172,-21.613325119018555)" stroke="none" fill="white"><switch><g><path d="M75 27.1c1-.4 2.1-3.1 2.1-3.1-3.5.2-5.5-2.7-5.5-2.7-3.1-2.2-6.1-2.8-8.6-2.7-1.7-.9-4.6-2-7.8-1.1-4.4 1.3-5.1 4.7-5.2 5.5-.1-.8-.7-4.2-5.2-5.5-3.2-.9-6.1.2-7.8 1.1-2.6-.1-5.5.5-8.6 2.7 0 0-2.1 2.9-5.5 2.7 0 0 1 2.7 2.1 3.1 0 0-5.8 1.7-6.1 9.6s2.8 17.3 8.3 18.9c0 0-.7 11.2 11.6 18.9L39 73s-.1 3.4 5.6 6.9c3.5 2.2 4.7 4.7 5.2 6.4l.2 1.1v.6-.7.8c0-.8.4-4.9 5.5-8.1 5.7-3.5 5.6-6.9 5.6-6.9l.2 1.5c12.3-7.7 11.6-18.9 11.6-18.9 5.5-1.7 8.6-11 8.3-18.9-.4-8-6.2-9.7-6.2-9.7zm-25.1 5.6c-5.2 0-9-1.3-9-1.3 2.2-.1 4.5-1.4 4.5-1.4l-.3.6c3 .4 4.8-1.8 4.8-1.8s1.7 2.2 4.8 1.8l-.3-.6s2.3 1.3 4.5 1.4c0 0-3.8 1.3-9 1.3z"></path></g></switch></g><!----></svg>