<?xml version="1.0" standalone="no"?>
<!DOCTYPE svg PUBLIC "-//W3C//DTD SVG 20010904//EN"
 "http://www.w3.org/TR/2001/REC-SVG-20010904/DTD/svg10.dtd">
<svg version="1.0" xmlns="http://www.w3.org/2000/svg"
 width="260.000000pt" height="260.000000pt" viewBox="0 0 260.000000 260.000000"
 preserveAspectRatio="xMidYMid meet">
<metadata>
Created by potrace 1.14, written by Peter Selinger 2001-2017
</metadata>
<g transform="translate(0.000000,260.000000) scale(0.100000,-0.100000)"
fill="#000000" stroke="none">
<path d="M976 2343 c-3 -4 -16 -8 -28 -10 -12 -2 -31 -10 -43 -17 -11 -7 -33
-12 -48 -10 -15 1 -25 -1 -23 -5 3 -4 -1 -8 -9 -8 -8 0 -15 4 -15 9 0 4 -8 4
-17 -1 -41 -21 -79 -34 -90 -32 -7 1 -13 -3 -13 -9 0 -6 -8 -14 -17 -17 -10
-4 -39 -27 -65 -52 -26 -25 -55 -46 -65 -47 -42 -7 -61 -15 -59 -26 5 -24 29
-68 38 -68 15 0 8 -21 -9 -27 -28 -11 -63 -45 -96 -93 -17 -25 -31 -47 -30
-50 0 -3 -1 -9 -3 -15 -9 -26 -25 -102 -24 -115 0 -8 0 -24 0 -35 -1 -11 -1
-24 -1 -30 1 -5 3 -37 5 -70 2 -33 5 -62 6 -65 1 -3 2 -9 1 -13 -2 -9 17 -83
26 -107 3 -8 7 -19 8 -25 4 -30 21 -76 44 -120 28 -54 116 -149 131 -140 11 7
24 -31 15 -45 -3 -5 0 -10 7 -10 10 0 10 -2 -1 -9 -7 -5 -9 -10 -3 -12 5 -2
12 -24 15 -49 3 -25 10 -57 16 -73 6 -15 7 -27 3 -27 -4 0 -2 -4 3 -8 6 -4 17
-26 23 -49 7 -24 17 -43 22 -43 6 0 10 -9 10 -20 0 -11 4 -20 8 -20 5 0 18
-18 31 -39 22 -40 112 -136 166 -178 21 -17 32 -20 42 -11 10 8 13 6 13 -10 0
-11 6 -25 14 -32 8 -6 12 -19 9 -27 -4 -11 -2 -14 5 -9 7 4 12 3 12 -2 0 -14
68 -78 122 -115 26 -18 50 -40 54 -50 3 -10 8 -16 12 -13 7 8 57 -81 78 -139
l7 -20 4 20 c7 37 25 75 35 75 5 0 8 5 6 12 -4 12 107 128 123 128 15 0 119
108 119 124 0 8 5 18 10 21 5 3 11 16 11 28 1 17 2 18 6 4 4 -16 7 -16 36 4
41 28 157 146 157 160 0 6 5 7 10 4 6 -3 10 0 10 8 0 7 9 23 20 35 12 12 18
22 15 22 -3 0 6 20 21 45 14 25 23 45 18 45 -4 0 0 8 9 18 10 10 14 21 11 24
-3 4 0 16 6 28 10 19 20 60 22 98 1 6 6 12 11 12 5 0 4 6 -2 14 -8 10 -9 16
-1 21 7 4 7 12 0 25 -9 16 -6 21 15 26 14 3 25 10 25 16 0 5 3 7 8 5 4 -2 17
6 30 19 12 13 20 24 17 24 -3 0 5 11 19 24 15 13 26 31 26 40 0 9 5 16 11 16
5 0 8 4 4 9 -3 5 -1 12 4 15 8 5 40 87 42 108 0 4 5 22 10 40 5 18 12 50 15
71 3 21 7 45 8 52 1 8 5 18 9 21 4 4 2 13 -4 20 -7 8 -7 14 1 19 8 5 8 11 -1
21 -6 8 -7 14 -2 14 5 0 9 9 9 20 0 11 -4 20 -8 20 -5 0 -4 8 1 19 6 10 8 21
5 23 -3 3 -7 18 -10 34 -9 43 -12 59 -14 59 -1 0 -3 11 -6 25 -2 14 -10 30
-18 35 -7 6 -13 14 -13 18 -1 13 -65 87 -75 87 -5 0 -16 7 -25 15 -14 14 -14
18 1 34 9 10 16 23 16 29 0 7 4 12 8 12 5 0 9 7 9 15 0 8 -4 16 -9 16 -19 3
-24 5 -35 12 -7 5 -13 5 -13 1 0 -3 -8 0 -17 7 -14 12 -16 12 -9 -1 5 -8 -5
-1 -22 17 -16 17 -33 29 -36 26 -3 -4 -6 -1 -6 6 0 15 -40 50 -57 51 -7 0 -13
5 -13 11 0 6 -7 9 -15 5 -8 -3 -15 -1 -15 3 0 5 -13 14 -30 20 -16 5 -30 8
-30 5 0 -3 -9 0 -19 6 -14 7 -22 7 -26 0 -5 -8 -11 -7 -21 1 -8 6 -23 9 -33 6
-12 -3 -22 1 -25 9 -3 8 -17 14 -31 14 -14 0 -25 4 -25 10 0 6 -28 8 -72 5
-103 -8 -107 -8 -102 -17 3 -4 -1 -8 -8 -8 -7 0 -24 -12 -37 -25 -13 -14 -27
-25 -33 -25 -5 0 -6 -4 -3 -10 3 -5 1 -10 -4 -10 -6 0 -11 -9 -11 -20 0 -11
-5 -20 -11 -20 -5 0 -7 -4 -4 -10 3 -5 1 -10 -4 -10 -6 0 -11 3 -12 8 -3 36
-34 91 -51 92 -4 0 -16 7 -27 16 -40 35 -172 60 -195 37z m294 -377 c0 -7 10
-17 23 -21 12 -4 24 -8 27 -10 3 -1 13 -5 23 -9 10 -5 24 -3 34 5 12 10 15 10
9 2 -4 -7 -2 -13 3 -13 6 0 11 4 11 9 0 5 12 4 28 -3 61 -28 76 -36 60 -32 -9
3 -18 1 -20 -4 -2 -6 -15 -11 -30 -12 -16 -1 -28 -5 -28 -8 0 -3 -17 -5 -37
-4 -21 1 -44 -3 -50 -9 -8 -6 -13 -6 -13 0 0 11 -36 11 -46 0 -4 -3 -11 -4
-16 -1 -5 4 -42 8 -81 11 -40 3 -82 6 -94 6 -13 1 -23 5 -23 10 0 4 -8 7 -17
7 -9 0 -13 3 -10 7 11 11 108 42 102 33 -3 -5 7 -7 22 -6 16 2 28 5 28 6 0 1
9 3 20 5 11 2 21 9 23 14 2 6 10 11 18 11 8 0 14 5 14 10 0 6 5 10 10 10 6 0
10 -6 10 -14z"/>
</g>
</svg>
